<?xml version="1.0" encoding="UTF-8" standalone="no"?>
<!-- Created with Inkscape (http://www.inkscape.org/) -->

<svg
   xmlns:dc="http://purl.org/dc/elements/1.1/"
   xmlns:cc="http://creativecommons.org/ns#"
   xmlns:rdf="http://www.w3.org/1999/02/22-rdf-syntax-ns#"
   xmlns:svg="http://www.w3.org/2000/svg"
   xmlns="http://www.w3.org/2000/svg"
   xmlns:sodipodi="http://sodipodi.sourceforge.net/DTD/sodipodi-0.dtd"
   xmlns:inkscape="http://www.inkscape.org/namespaces/inkscape"
   width="150.21214mm"
   height="141.07193mm"
   viewBox="0 0 150.21214 141.07193"
   version="1.1"
   id="svg8"
   inkscape:version="0.92.3 (3ce5693, 2018-03-11)"
   sodipodi:docname="filter.svg">
  <defs
     id="defs2">
    <inkscape:perspective
       sodipodi:type="inkscape:persp3d"
       inkscape:vp_x="0 : 70.535965 : 1"
       inkscape:vp_y="0 : 1000 : 0"
       inkscape:vp_z="150.21214 : 70.535965 : 1"
       inkscape:persp3d-origin="75.10607 : 47.023977 : 1"
       id="perspective3767" />
  </defs>
  <sodipodi:namedview
     id="base"
     pagecolor="#ffffff"
     bordercolor="#666666"
     borderopacity="1.0"
     inkscape:pageopacity="0.0"
     inkscape:pageshadow="2"
     inkscape:zoom="0.5561514"
     inkscape:cx="115.20277"
     inkscape:cy="146.40023"
     inkscape:document-units="mm"
     inkscape:current-layer="layer1"
     showgrid="false"
     inkscape:measure-start="283.852,532.401"
     inkscape:measure-end="0,0"
     inkscape:window-width="1366"
     inkscape:window-height="664"
     inkscape:window-x="0"
     inkscape:window-y="27"
     inkscape:window-maximized="1" />
  <metadata
     id="metadata5">
    <rdf:RDF>
      <cc:Work
         rdf:about="">
        <dc:format>image/svg+xml</dc:format>
        <dc:type
           rdf:resource="http://purl.org/dc/dcmitype/StillImage" />
        <dc:title />
      </cc:Work>
    </rdf:RDF>
  </metadata>
  <g
     inkscape:label="Layer 1"
     inkscape:groupmode="layer"
     id="layer1"
     transform="translate(-25.108139,-132.26191)">
    <path
       style="fill:none;stroke:#000000;stroke-width:0.26428944px;stroke-linecap:butt;stroke-linejoin:miter;stroke-opacity:1"
       d="M 25.214207,132.39405 H 175.21421"
       id="path3717"
       inkscape:connector-curvature="0" />
    <path
       style="fill:none;stroke:#000000;stroke-width:0.26458332px;stroke-linecap:butt;stroke-linejoin:miter;stroke-opacity:1"
       d="m 25.214207,132.39405 50,67.0793"
       id="path3759"
       inkscape:connector-curvature="0" />
    <path
       style="fill:none;stroke:#000000;stroke-width:0.26458332px;stroke-linecap:butt;stroke-linejoin:miter;stroke-opacity:1"
       d="m 175.21421,132.39405 -50,67.0793"
       id="path3761"
       inkscape:connector-curvature="0" />
    <path
       id="path6679"
       transform="matrix(0.26458333,0,0,0.26458333,25.108139,132.26191)"
       style="fill:#007ee5;stroke:#000080;stroke-width:1.7980715;fill-opacity:1"
       d="M 285.38281,1.0664062 V 266.28125 474.0332 c 24.74308,-12.97211 49.42843,-26.05298 73.99024,-39.36523 4.60516,-2.04242 8.83236,-4.82395 13.34765,-7.04102 0.41466,-0.20345 2.56045,-1.18498 3.82032,-1.51172 0.17934,-0.0723 0.3639,-0.13712 0.54492,-0.20703 V 392.4668 253.43555 l 93.49804,-125.4668 c 51.42485,-69.007229 93.5,-125.7910881 93.5,-126.1855469 0,-0.3944588 -62.70687,-0.7167969 -139.3496,-0.7167969 z" />
    <path
       id="path6681"
       transform="matrix(0.26458333,0,0,0.26458333,25.108139,132.26191)"
       style="fill:#0024d0;stroke:#000080;stroke-width:1.7980715"
       d="M 142.2168,1.0664062 C 30.818862,1.0664062 3.0013476,1.5205465 4.4082031,3.3144531 5.3776619,4.5506272 47.552434,61.14016 98.128906,129.07031 l 91.957034,123.50977 v 139.45898 131.8418 c 0.92296,-0.90642 1.86374,-1.47273 2.75195,-1.73828 23.35807,-12.1033 46.7232,-24.1947 70.05273,-36.35547 0.13597,-0.11741 0.26853,-0.23626 0.38868,-0.35938 1.92165,-1.11051 1.5871,-1.05497 2.39453,-1.22656 l 0.002,-0.002 c 0.17914,-0.27566 0.50159,-0.40288 0.83984,-0.4961 0.39017,-0.49455 0.80908,-0.95146 1.34766,-1.26171 l 1.6836,-0.14649 c 0.15202,-0.27247 0.32148,-0.52822 0.56445,-0.7168 0.0652,-0.0506 0.11303,-0.0848 0.17578,-0.13281 0.3897,-0.64128 0.76586,-1.22554 0.8418,-1.33203 0.17498,0.1187 0.3504,0.23677 0.52539,0.35547 1.46693,-0.94774 1.63672,-0.61696 1.20312,0.11133 0.2986,-0.15601 0.5979,-0.31076 0.89649,-0.4668 -0.22123,-0.34103 -0.44385,-0.68145 -0.63477,-1.04101 -0.19884,-0.37456 0.81161,-0.25613 1.23047,-0.32227 0.40401,-0.0635 0.96241,-0.37469 1.22656,-0.0625 0.0919,0.10859 0.16882,0.22787 0.25586,0.33984 1.98437,-1.03754 3.97141,-2.07051 5.95508,-3.10937 V 266.28125 1.0664062 Z M 266.36133,483.89844 c -0.1596,0.0769 -0.29745,0.15796 -0.38281,0.23437 0.0383,-0.008 0.0901,-0.0202 0.13867,-0.0312 0.0509,-0.0265 0.10148,-0.0535 0.15234,-0.0801 0.0305,-0.0411 0.0609,-0.0824 0.0918,-0.12304 z" />
    <path
       id="path4545"
       transform="matrix(0.26458333,0,0,0.26458333,25.108139,132.26191)"
       style="fill:#007ee5;stroke:#000000;stroke-width:0.89903575;fill-opacity:0"
       d="M 286.35938,2.4628906 V 266.33008 473.52148 c 24.41593,-12.80449 48.77496,-25.71637 73.01367,-38.85351 4.60516,-2.04242 8.83236,-4.82395 13.34765,-7.04102 0.38779,-0.19026 2.26764,-1.04257 3.54297,-1.42187 V 391.45703 252.71484 l 40.15235,-53.87695 C 455.99656,145.7298 539.34267,33.618107 554.55078,13.027344 L 562.35352,2.4628906 H 424.35547 Z" />
    <path
       id="path4547"
       transform="matrix(0.26458333,0,0,0.26458333,25.108139,132.26191)"
       style="fill:#007ee5;fill-opacity:0;stroke:#000000;stroke-width:0.89903575"
       d="M 287.25781,3.3632812 V 266.33008 473.04883 c 24.11485,-12.65012 48.17403,-25.40497 72.11524,-38.38086 4.60516,-2.04242 8.83236,-4.82395 13.34765,-7.04102 0.30135,-0.14785 1.51714,-0.70328 2.64258,-1.12304 v -35.4961 -138.29297 l 16.00391,-21.51172 C 400.16841,219.37163 441.48948,163.7727 483.19336,107.65039 524.89726,51.528092 559.41652,5.1044152 559.90234,4.4863281 560.60816,3.5883463 533.30405,3.3632812 424.02148,3.3632812 Z" />
    <path
       id="path4549"
       transform="matrix(0.26458333,0,0,0.26458333,25.108139,132.26191)"
       style="fill:#007ee5;fill-opacity:0;stroke:#000000;stroke-width:0.89903575"
       d="M 288.1582,4.2285156 V 266.31445 472.57812 c 23.81347,-12.4955 47.57139,-25.09563 71.21485,-37.91015 4.60516,-2.04242 8.83236,-4.82395 13.34765,-7.04102 0.22079,-0.10832 0.93684,-0.43442 1.74414,-0.76757 V 390.53906 252.67969 l 35.66993,-48.01563 C 429.75353,178.25546 471.03972,122.7183 501.88086,81.248047 532.72201,39.777798 557.69908,5.5917359 557.38672,5.2792969 557.07436,4.9668581 496.37037,4.6017946 422.48828,4.46875 Z" />
    <path
       id="path4551"
       transform="matrix(0.26458333,0,0,0.26458333,25.108139,132.26191)"
       style="fill:#007ee5;fill-opacity:0;stroke:#000000;stroke-width:0.89903575"
       d="M 289.05664,5.1601562 V 266.33008 472.10547 c 23.51236,-12.34111 46.97046,-24.78423 70.31641,-37.4375 4.60516,-2.04242 8.83236,-4.82395 13.34765,-7.04102 0.11006,-0.054 0.5407,-0.24013 0.84571,-0.37695 V 390.04297 252.58594 l 61.73242,-83.03125 C 508.55305,71.026402 536.70329,32.992647 547.71875,17.666016 L 555.85352,6.3457031 526.14648,5.7539062 C 509.80767,5.4278844 449.77858,5.1601565 392.74805,5.1601562 Z" />
    <path
       id="path4553"
       transform="matrix(0.26458333,0,0,0.26458333,25.108139,132.26191)"
       style="fill:#007ee5;fill-opacity:0;stroke:#000000;stroke-width:0.89903575"
       d="M 281.86523,0.56054688 144.98633,0.90039062 C 69.703317,1.0866484 7.1984943,1.5604826 6.0859375,1.9550781 4.9733808,2.3496734 4.0772939,2.9290058 4.0957031,3.2421875 4.1141122,3.555369 45.766751,59.642078 96.658203,127.87891 l 92.531247,124.0664 0.0371,140.02539 0.0352,132.49219 c 0.15597,-0.0729 0.32224,-0.14499 0.46484,-0.18945 1.03604,-1.12972 2.10693,-1.83057 3.11133,-2.13086 23.35828,-12.1034 46.723,-24.19651 70.05273,-36.35742 0.1356,-0.11713 0.26883,-0.23461 0.38868,-0.35743 1.92165,-1.11051 1.5871,-1.05497 2.39453,-1.22656 l 0.002,-0.002 c 0.17914,-0.27566 0.50159,-0.40288 0.83984,-0.4961 0.39017,-0.49455 0.80908,-0.95146 1.34766,-1.26171 l 1.6836,-0.14649 c 0.15202,-0.27247 0.32148,-0.52822 0.56445,-0.7168 0.0652,-0.0506 0.11303,-0.0848 0.17578,-0.13281 0.3897,-0.64128 0.76586,-1.22554 0.8418,-1.33203 0.17498,0.1187 0.3504,0.23677 0.52539,0.35547 1.46635,-0.94736 1.63798,-0.61634 1.20508,0.11133 0.29808,-0.15574 0.59645,-0.31103 0.89453,-0.4668 -0.22123,-0.34103 -0.44385,-0.68145 -0.63477,-1.04101 -0.19884,-0.37456 0.81161,-0.25613 1.23047,-0.32227 0.40401,-0.0635 0.96241,-0.37469 1.22656,-0.0625 0.0919,0.10859 0.16882,0.22787 0.25586,0.33984 2.01045,-1.05118 4.02347,-2.09785 6.0332,-3.15039 V 266.2793 Z M 266.36133,483.89844 c -0.1596,0.0769 -0.29745,0.15796 -0.38281,0.23437 0.0378,-0.008 0.0888,-0.0203 0.13671,-0.0312 0.0514,-0.0268 0.10293,-0.0533 0.1543,-0.0801 0.0305,-0.0411 0.0609,-0.0824 0.0918,-0.12304 z" />
    <path
       id="path4555"
       transform="matrix(0.26458333,0,0,0.26458333,25.108139,132.26191)"
       style="fill:#007ee5;fill-opacity:0;stroke:#000000;stroke-width:0.89903575"
       d="m 280.96484,1.3398438 -136.88672,0.375 C 68.789896,1.9216502 6.6969468,2.3967355 6.09375,2.7695312 5.3305697,3.2412026 7.3607715,6.6471418 12.771484,13.96875 26.507159,32.555435 115.0703,151.47624 153.17578,202.5 l 36.92774,49.44531 0.0293,139.57617 0.0273,132.28711 c 0.89919,-0.86387 1.81334,-1.40758 2.67773,-1.66601 23.3575,-12.103 46.72169,-24.19525 70.05078,-36.35547 0.13637,-0.11771 0.27015,-0.23592 0.39063,-0.35938 1.92165,-1.11051 1.5871,-1.05497 2.39453,-1.22656 0,0 0.002,-0.002 0.002,-0.002 0.17914,-0.27566 0.50158,-0.40288 0.83984,-0.4961 0.39017,-0.49456 0.80908,-0.95146 1.34766,-1.26171 l 1.6836,-0.14649 c 0.15203,-0.27247 0.32148,-0.52822 0.56445,-0.7168 0.0652,-0.0506 0.11303,-0.0848 0.17578,-0.13281 0.3897,-0.64128 0.76586,-1.22554 0.8418,-1.33203 0.17498,0.1187 0.3504,0.23677 0.52539,0.35547 1.46804,-0.94845 1.63801,-0.61619 1.20312,0.11328 0.29887,-0.15615 0.59763,-0.31257 0.89649,-0.46875 -0.22123,-0.34103 -0.44385,-0.68145 -0.63477,-1.04101 -0.19884,-0.37456 0.81161,-0.25613 1.23047,-0.32227 0.40401,-0.0635 0.96241,-0.37469 1.22656,-0.0625 0.0925,0.10929 0.17024,0.22908 0.25781,0.3418 1.70983,-0.89399 3.42155,-1.78473 5.13086,-2.67969 V 266.21875 Z M 266.36133,483.89844 c -0.1596,0.0769 -0.29745,0.15796 -0.38281,0.23437 0.0388,-0.008 0.0914,-0.0199 0.14062,-0.0312 0.0496,-0.0259 0.0989,-0.0523 0.14844,-0.0781 0.0311,-0.0418 0.0623,-0.0836 0.0937,-0.125 z" />
    <path
       style="fill:#000080;fill-opacity:0;stroke:#000000;stroke-width:1.7980715"
       d="M 190.72178,386.34796 V 251.39001 L 99.020132,128.28821 C 48.584226,60.582226 7.3184843,4.7116984 7.3184843,4.1314847 7.3184843,3.5512709 68.812531,3.0765505 143.97192,3.0765505 H 280.62536 V 239.14833 475.22012 l -5.84374,2.80919 c -3.21405,1.54506 -22.02637,11.37156 -41.80516,21.83668 -19.77879,10.46511 -37.37741,19.57028 -39.10805,20.23369 -2.97955,1.14218 -3.14663,-5.95956 -3.14663,-133.75172 z"
       id="path5033"
       inkscape:connector-curvature="0"
       transform="matrix(0.26458333,0,0,0.26458333,25.108139,132.26191)" />
    <path
       style="fill:#000080;fill-opacity:0;stroke:#000000;stroke-width:1.7980715"
       d="M 192.51985,384.45734 V 251.58969 L 139.15239,179.92671 C 68.045254,84.442535 9.1166033,4.8926134 9.1163514,4.3863556 9.116239,4.1604326 69.80416,4.1880114 143.9784,4.4476419 l 134.86225,0.4720558 -0.45619,234.9672923 -0.45621,234.96732 -40.45661,21.20739 c -22.25113,11.66405 -41.46802,21.21997 -42.7042,21.23535 -1.77804,0.0221 -2.24759,-27.72938 -2.24759,-132.83971 z"
       id="path5035"
       inkscape:connector-curvature="0"
       transform="matrix(0.26458333,0,0,0.26458333,25.108139,132.26191)" />
  </g>
</svg>
