<?xml version="1.0" encoding="UTF-8" standalone="no"?>
<!-- Created with Inkscape (http://www.inkscape.org/) -->

<svg
   xmlns:dc="http://purl.org/dc/elements/1.1/"
   xmlns:cc="http://creativecommons.org/ns#"
   xmlns:rdf="http://www.w3.org/1999/02/22-rdf-syntax-ns#"
   xmlns:svg="http://www.w3.org/2000/svg"
   xmlns="http://www.w3.org/2000/svg"
   xmlns:sodipodi="http://sodipodi.sourceforge.net/DTD/sodipodi-0.dtd"
   xmlns:inkscape="http://www.inkscape.org/namespaces/inkscape"
   width="127.70986mm"
   height="127.70986mm"
   viewBox="0 0 127.70986 127.70986"
   version="1.1"
   id="svg4817"
   inkscape:version="0.92.3 (3ce5693, 2018-03-11)"
   sodipodi:docname="authenticate.svg">
  <defs
     id="defs4811" />
  <sodipodi:namedview
     id="base"
     pagecolor="#ffffff"
     bordercolor="#666666"
     borderopacity="1.0"
     inkscape:pageopacity="0.0"
     inkscape:pageshadow="2"
     inkscape:zoom="0.49497475"
     inkscape:cx="244.16743"
     inkscape:cy="211.09587"
     inkscape:document-units="mm"
     inkscape:current-layer="layer1"
     showgrid="false"
     inkscape:window-width="1366"
     inkscape:window-height="664"
     inkscape:window-x="0"
     inkscape:window-y="27"
     inkscape:window-maximized="1" />
  <metadata
     id="metadata4814">
    <rdf:RDF>
      <cc:Work
         rdf:about="">
        <dc:format>image/svg+xml</dc:format>
        <dc:type
           rdf:resource="http://purl.org/dc/dcmitype/StillImage" />
        <dc:title></dc:title>
      </cc:Work>
    </rdf:RDF>
  </metadata>
  <g
     inkscape:label="Layer 1"
     inkscape:groupmode="layer"
     id="layer1"
     transform="translate(-35.239458,-86.554941)">
    <path
       sodipodi:type="star"
       style="fill:#0028c0;fill-opacity:1;fill-rule:evenodd;stroke:#cd5c5c;stroke-width:0;stroke-linecap:butt;stroke-linejoin:round;stroke-miterlimit:4;stroke-dasharray:none;stroke-opacity:1;paint-order:markers stroke fill"
       id="path4825"
       sodipodi:sides="9"
       sodipodi:cx="100.19883"
       sodipodi:cy="150.50291"
       sodipodi:r1="47.068066"
       sodipodi:r2="56.033413"
       sodipodi:arg1="0.78539816"
       sodipodi:arg2="1.134464"
       inkscape:flatsided="false"
       inkscape:rounded="0.57"
       inkscape:randomized="0"
       d="m 133.48098,183.78506 c -8.04574,8.04574 0.71092,12.69266 -9.60141,17.50137 -10.31232,4.80872 -8.2434,-4.88625 -19.57849,-3.89456 -11.335089,0.99169 -7.614084,10.18011 -18.604764,7.23517 -10.990681,-2.94495 -3.173988,-9.04185 -12.49462,-15.56822 -9.320631,-6.52638 -12.376375,2.90417 -18.902751,-6.41646 -6.526376,-9.32063 3.380569,-8.96665 0.435624,-19.95733 -2.944944,-10.99068 -11.34762,-5.73066 -10.355928,-17.06575 0.991692,-11.33509 8.353319,-4.69587 13.162034,-15.00819 4.808715,-10.31232 -5.009188,-11.68404 3.036548,-19.72978 8.045737,-8.04574 9.417459,1.77217 19.729782,-3.03655 10.312323,-4.80872 3.673099,-12.170342 15.00819,-13.162034 11.335095,-0.991692 6.075065,7.410984 17.065745,10.355924 10.99068,2.94495 10.6367,-6.961997 19.95733,-0.43562 9.32064,6.52638 -0.10991,9.58212 6.41646,18.90275 6.52638,9.32063 12.62328,1.50394 15.56822,12.49462 2.94494,10.99068 -6.24347,7.26967 -7.23516,18.60477 -0.99169,11.33509 8.70327,9.26616 3.89456,19.57849 -4.80872,10.31232 -9.45564,1.55567 -17.50137,9.6014 z"
       inkscape:transform-center-x="-0.84803514"
       inkscape:transform-center-y="0.84803421" />
    <path
       style="fill:#0028c0;fill-opacity:1;fill-rule:evenodd;stroke:#cd5c5c;stroke-width:0;stroke-linecap:butt;stroke-linejoin:round;stroke-miterlimit:4;stroke-dasharray:none;stroke-opacity:1;paint-order:markers stroke fill"
       d="m 96.449043,96.679942 c -2.630277,0.05423 -5.823389,0.603024 -6.837921,3.426308 -1.645455,3.64026 -3.713014,7.43471 -7.562951,9.12298 -4.077921,2.46158 -9.146094,2.37214 -13.50769,0.74805 -3.626988,-1.27842 -6.531453,2.21336 -8.462528,4.76768 -1.721898,3.18739 0.881724,6.58404 0.816459,9.91195 0.08781,4.33253 -1.891438,8.72779 -5.006164,11.70726 -2.394421,2.2559 -5.976139,2.8126 -8.265605,5.12764 -1.32192,2.67422 -1.711614,6.08306 -0.642554,8.89473 2.150805,2.89548 6.049273,4.04169 7.815499,7.33854 2.261189,4.03727 3.435152,9.14061 1.491618,13.54477 -1.026157,2.63608 -3.220736,5.61487 -1.35032,8.42289 1.437558,2.51618 3.582834,5.9585 7.007349,5.22227 3.838205,-0.76953 7.950715,-0.38857 11.264189,1.83175 3.621332,2.06274 6.527417,5.46636 7.271404,9.65237 0.511453,2.11151 0.981636,4.66546 3.409692,5.36932 2.24807,1.02445 4.977069,1.73661 7.381371,0.98589 3.375136,-2.70655 6.311995,-6.54984 10.931719,-7.06234 4.96572,-1.19439 10.26786,0.43083 13.9968,3.84382 2.94244,2.13104 6.8629,0.11722 9.42412,-1.75184 2.45588,-1.61493 1.58138,-4.88937 2.21665,-7.33726 0.81526,-5.60155 5.3392,-10.44541 10.72393,-11.98922 2.55231,-0.82038 5.49402,-0.21987 7.88072,-1.46476 2.54101,-2.34554 4.31829,-6.05357 3.44108,-9.48316 -2.6301,-3.57006 -5.46939,-7.63691 -4.81521,-12.32986 -0.0548,-4.32697 2.1826,-8.24693 5.27137,-11.1402 1.58751,-1.48597 3.17454,-3.43324 2.3595,-5.76367 -0.53971,-2.83562 -1.48275,-6.5583 -4.87957,-7.00735 -5.202,-0.93274 -10.01573,-4.18923 -12.16632,-9.11403 -2.24281,-3.92366 -0.66688,-8.58474 -1.33498,-12.71553 -1.88698,-2.39577 -4.61661,-4.74047 -7.77969,-4.96205 -3.64821,0.87761 -6.91554,3.45634 -10.85756,3.12134 -5.43046,-0.19468 -10.60277,-3.18725 -13.31804,-7.924237 -1.19498,-2.305805 -3.364867,-3.272747 -5.916367,-2.994051 z"
       id="path5408"
       inkscape:connector-curvature="0" />
    <path
       style="fill:none;stroke:#ffffff;stroke-width:11.133;stroke-linecap:round;stroke-linejoin:round;stroke-miterlimit:4;stroke-dasharray:none;stroke-opacity:1"
       d="M 78.590372,153.71719 93.404575,167.6055 119.32942,137.51416"
       id="path5416"
       inkscape:connector-curvature="0" />
  </g>
</svg>
