<?xml version="1.0" encoding="UTF-8" standalone="no"?>
<!-- Created with Inkscape (http://www.inkscape.org/) -->

<svg
   xmlns:dc="http://purl.org/dc/elements/1.1/"
   xmlns:cc="http://creativecommons.org/ns#"
   xmlns:rdf="http://www.w3.org/1999/02/22-rdf-syntax-ns#"
   xmlns:svg="http://www.w3.org/2000/svg"
   xmlns="http://www.w3.org/2000/svg"
   xmlns:sodipodi="http://sodipodi.sourceforge.net/DTD/sodipodi-0.dtd"
   xmlns:inkscape="http://www.inkscape.org/namespaces/inkscape"
   width="40.892593mm"
   height="29.010328mm"
   viewBox="0 0 40.892593 29.010329"
   version="1.1"
   id="svg8"
   inkscape:version="0.92.3 (3ce5693, 2018-03-11)"
   sodipodi:docname="dialog.svg">
  <defs
     id="defs2" />
  <sodipodi:namedview
     id="base"
     pagecolor="#ffffff"
     bordercolor="#666666"
     borderopacity="1.0"
     inkscape:pageopacity="0.0"
     inkscape:pageshadow="2"
     inkscape:zoom="2.8"
     inkscape:cx="89.780035"
     inkscape:cy="57.643454"
     inkscape:document-units="mm"
     inkscape:current-layer="layer1"
     showgrid="false"
     inkscape:window-width="1366"
     inkscape:window-height="664"
     inkscape:window-x="0"
     inkscape:window-y="27"
     inkscape:window-maximized="1"
     inkscape:snap-text-baseline="true" />
  <metadata
     id="metadata5">
    <rdf:RDF>
      <cc:Work
         rdf:about="">
        <dc:format>image/svg+xml</dc:format>
        <dc:type
           rdf:resource="http://purl.org/dc/dcmitype/StillImage" />
        <dc:title />
      </cc:Work>
    </rdf:RDF>
  </metadata>
  <g
     inkscape:label="Layer 1"
     inkscape:groupmode="layer"
     id="layer1"
     transform="translate(-70.127836,-131.71048)">
    <path
       style="fill:#0028c0;fill-opacity:1;fill-rule:evenodd;stroke-width:0.2914542"
       d="m 90.574134,131.71048 c -11.291898,-7e-5 -20.445943,6.38848 -20.446298,14.26935 0.0093,3.45395 1.813251,6.78831 5.077211,9.38457 0.04566,-0.035 0.09291,-0.0668 0.13539,-0.10724 0,0 -1.403017,1.41151 0,0 0,0 -3.212551,5.49763 -2.557615,5.46349 1.96481,-0.1024 6.632301,-2.82293 6.632301,-2.82293 -0.0057,0.005 0.0057,-0.005 0,0 0,0 7.18788,2.34791 11.159024,2.3521 11.292243,7e-5 20.446423,-6.38886 20.446283,-14.26998 -2.6e-4,-7.88086 -9.15439,-14.26941 -20.446283,-14.26935 z"
       id="path992"
       inkscape:connector-curvature="0"
       sodipodi:nodetypes="cccccccccccc" />
    <path
       style="fill:#dcdcdc;fill-rule:evenodd;stroke-width:0.22200093"
       d="m 77.132911,152.25115 c -0.03352,-8e-5 -0.06527,0.003 -0.09756,0.004 a 17.155494,9.8672118 0 0 0 0.03339,0.0221 c 0.02025,-0.008 0.04486,-0.019 0.06417,-0.026 z"
       id="path956"
       inkscape:connector-curvature="0" />
    <ellipse
       style="fill:#ffffff;fill-opacity:1;fill-rule:evenodd;stroke:#ffffff;stroke-width:3.82055736;stroke-linecap:round;stroke-linejoin:round;stroke-miterlimit:4;stroke-dasharray:none;stroke-dashoffset:0;stroke-opacity:1;paint-order:normal"
       id="path1962"
       cx="81.223091"
       cy="146.1608"
       rx="1.1998328"
       ry="1.134977" />
    <ellipse
       style="fill:#ffffff;fill-opacity:1;fill-rule:evenodd;stroke:#ffffff;stroke-width:3.82055736;stroke-linecap:round;stroke-linejoin:round;stroke-miterlimit:4;stroke-dasharray:none;stroke-dashoffset:0;stroke-opacity:1;paint-order:normal"
       id="path1962-3"
       cx="90.950058"
       cy="146.04187"
       rx="1.1998328"
       ry="1.134977" />
    <ellipse
       style="fill:#ffffff;fill-opacity:1;fill-rule:evenodd;stroke:#ffffff;stroke-width:3.82055736;stroke-linecap:round;stroke-linejoin:round;stroke-miterlimit:4;stroke-dasharray:none;stroke-dashoffset:0;stroke-opacity:1;paint-order:normal"
       id="path1962-6"
       cx="100.70224"
       cy="145.9626"
       rx="1.1998328"
       ry="1.134977" />
  </g>
</svg>
