<?xml version="1.0" encoding="UTF-8" standalone="no"?>
<!-- Created with Inkscape (http://www.inkscape.org/) -->

<svg
   xmlns:dc="http://purl.org/dc/elements/1.1/"
   xmlns:cc="http://creativecommons.org/ns#"
   xmlns:rdf="http://www.w3.org/1999/02/22-rdf-syntax-ns#"
   xmlns:svg="http://www.w3.org/2000/svg"
   xmlns="http://www.w3.org/2000/svg"
   xmlns:sodipodi="http://sodipodi.sourceforge.net/DTD/sodipodi-0.dtd"
   xmlns:inkscape="http://www.inkscape.org/namespaces/inkscape"
   width="24.321527mm"
   height="15.768902mm"
   viewBox="0 0 24.321527 15.768902"
   version="1.1"
   id="svg8"
   inkscape:version="0.92.3 (3ce5693, 2018-03-11)"
   sodipodi:docname="questionmark.svg">
  <defs
     id="defs2" />
  <sodipodi:namedview
     id="base"
     pagecolor="#ffffff"
     bordercolor="#666666"
     borderopacity="1.0"
     inkscape:pageopacity="0.0"
     inkscape:pageshadow="2"
     inkscape:zoom="5.6"
     inkscape:cx="39.763076"
     inkscape:cy="39.762476"
     inkscape:document-units="mm"
     inkscape:current-layer="layer1"
     showgrid="false"
     showguides="false"
     inkscape:window-width="1366"
     inkscape:window-height="664"
     inkscape:window-x="0"
     inkscape:window-y="27"
     inkscape:window-maximized="1" />
  <metadata
     id="metadata5">
    <rdf:RDF>
      <cc:Work
         rdf:about="">
        <dc:format>image/svg+xml</dc:format>
        <dc:type
           rdf:resource="http://purl.org/dc/dcmitype/StillImage" />
        <dc:title />
      </cc:Work>
    </rdf:RDF>
  </metadata>
  <g
     inkscape:label="Layer 1"
     inkscape:groupmode="layer"
     id="layer1"
     transform="translate(-66.845889,-95.680498)">
    <ellipse
       style="fill:#0028c0;fill-rule:evenodd;stroke-width:0.2354563;fill-opacity:1"
       id="path839"
       cx="79.006653"
       cy="103.56495"
       rx="12.160764"
       ry="7.8844509" />
    <circle
       style="fill:#ffffff;fill-rule:evenodd;stroke-width:0.26458332"
       id="path6308"
       cx="79.082863"
       cy="100.53532"
       r="1.3701636" />
    <path
       style="color:#000000;font-style:normal;font-variant:normal;font-weight:normal;font-stretch:normal;font-size:medium;line-height:normal;font-family:sans-serif;font-variant-ligatures:normal;font-variant-position:normal;font-variant-caps:normal;font-variant-numeric:normal;font-variant-alternates:normal;font-feature-settings:normal;text-indent:0;text-align:start;text-decoration:none;text-decoration-line:none;text-decoration-style:solid;text-decoration-color:#000000;letter-spacing:normal;word-spacing:normal;text-transform:none;writing-mode:lr-tb;direction:ltr;text-orientation:mixed;dominant-baseline:auto;baseline-shift:baseline;text-anchor:start;white-space:normal;shape-padding:0;clip-rule:nonzero;display:inline;overflow:visible;visibility:visible;opacity:1;isolation:auto;mix-blend-mode:normal;color-interpolation:sRGB;color-interpolation-filters:linearRGB;solid-color:#000000;solid-opacity:1;vector-effect:none;fill:#ffffff;fill-opacity:1;fill-rule:nonzero;stroke:none;stroke-width:2.46499991;stroke-linecap:butt;stroke-linejoin:miter;stroke-miterlimit:4;stroke-dasharray:none;stroke-dashoffset:0;stroke-opacity:1;color-rendering:auto;image-rendering:auto;shape-rendering:auto;text-rendering:auto;enable-background:accumulate"
       d="m 78.747674,103.13355 -0.94494,5.29223 h 2.464844 l -0.94494,-5.29222 z"
       id="path6310"
       inkscape:connector-curvature="0"
       sodipodi:nodetypes="ccccc" />
    <path
       style="fill:#0028c0;stroke:none;stroke-width:0.25253814;fill-opacity:1"
       d="M 44.747209,1.1322 C 32.649821,1.4508891 20.109444,4.5516753 10.543636,12.270458 5.3689972,16.575207 0.95849315,22.795194 1.2248271,29.802676 0.96206935,36.975347 5.5689885,43.302117 10.915978,47.628812 20.773446,55.386377 33.619414,58.315486 45.900386,58.548751 55.469364,58.307423 65.191699,56.751566 73.750623,52.279065 80.995,48.598092 87.908216,42.591661 90.206048,34.548125 90.803982,31.281872 90.855626,27.858809 90.090135,24.611341 87.613827,16.750608 80.919584,10.812575 73.641104,7.2563554 64.728182,2.862902 54.677632,0.94548566 44.747209,1.1322 Z m 1.638045,11.003165 c 4.299043,-0.11119 7.415775,4.947778 5.580995,8.775207 -1.538142,3.527195 -6.515345,4.866886 -9.514572,2.372478 -3.347885,-2.331435 -3.135743,-7.924585 0.328992,-10.056148 1.053829,-0.718443 2.32771,-1.112458 3.604585,-1.091537 z m 0.190391,14.888899 c 1.434897,-0.22808 1.936465,1.216466 1.936364,2.377886 1.099084,6.208761 2.146625,12.429051 3.340302,18.622731 -0.606369,2.003319 -2.981778,0.948467 -4.513627,1.207447 -2.108933,-0.149876 -4.343123,0.312612 -6.379547,-0.331948 -1.32929,-1.075313 0.07109,-2.963328 -0.0035,-4.343952 1.053201,-5.568347 1.858083,-11.203846 3.085208,-16.728186 0.536101,-0.817113 1.674129,-0.766398 2.534753,-0.803978 z"
       id="path6332"
       inkscape:connector-curvature="0"
       transform="matrix(0.26458333,0,0,0.26458333,66.845889,95.680498)" />
  </g>
</svg>
