<?xml version="1.0" encoding="UTF-8" standalone="no"?>
<!-- Created with Inkscape (http://www.inkscape.org/) -->

<svg
   xmlns:dc="http://purl.org/dc/elements/1.1/"
   xmlns:cc="http://creativecommons.org/ns#"
   xmlns:rdf="http://www.w3.org/1999/02/22-rdf-syntax-ns#"
   xmlns:svg="http://www.w3.org/2000/svg"
   xmlns="http://www.w3.org/2000/svg"
   xmlns:sodipodi="http://sodipodi.sourceforge.net/DTD/sodipodi-0.dtd"
   xmlns:inkscape="http://www.inkscape.org/namespaces/inkscape"
   width="150.21214mm"
   height="141.07193mm"
   viewBox="0 0 150.21214 141.07193"
   version="1.1"
   id="svg8"
   inkscape:version="0.92.3 (3ce5693, 2018-03-11)"
   sodipodi:docname="unchained.svg">
  <defs
     id="defs2">
    <inkscape:perspective
       sodipodi:type="inkscape:persp3d"
       inkscape:vp_x="0 : 70.535965 : 1"
       inkscape:vp_y="0 : 1000 : 0"
       inkscape:vp_z="150.21214 : 70.535965 : 1"
       inkscape:persp3d-origin="75.10607 : 47.023977 : 1"
       id="perspective3767" />
  </defs>
  <sodipodi:namedview
     id="base"
     pagecolor="#ffffff"
     bordercolor="#666666"
     borderopacity="1.0"
     inkscape:pageopacity="0.0"
     inkscape:pageshadow="2"
     inkscape:zoom="0.5561514"
     inkscape:cx="252.75713"
     inkscape:cy="184.1674"
     inkscape:document-units="mm"
     inkscape:current-layer="layer1"
     showgrid="false"
     inkscape:measure-start="283.852,532.401"
     inkscape:measure-end="0,0"
     inkscape:window-width="1366"
     inkscape:window-height="664"
     inkscape:window-x="0"
     inkscape:window-y="27"
     inkscape:window-maximized="1"
     showguides="false"
     inkscape:snap-bbox="true"
     inkscape:snap-global="false" />
  <metadata
     id="metadata5">
    <rdf:RDF>
      <cc:Work
         rdf:about="">
        <dc:format>image/svg+xml</dc:format>
        <dc:type
           rdf:resource="http://purl.org/dc/dcmitype/StillImage" />
        <dc:title></dc:title>
      </cc:Work>
    </rdf:RDF>
  </metadata>
  <g
     inkscape:label="Layer 1"
     inkscape:groupmode="layer"
     id="layer1"
     transform="translate(-25.108139,-132.26191)">
    <ellipse
       style="fill:#0024d0;fill-opacity:0;fill-rule:evenodd;stroke:#0024d0;stroke-width:7.81712198;stroke-linecap:round;stroke-linejoin:miter;stroke-miterlimit:1;stroke-dasharray:none;stroke-dashoffset:0;stroke-opacity:1;paint-order:normal"
       id="path1215"
       cx="28.438311"
       cy="199.83205"
       rx="29.160084"
       ry="16.077242" />
    <path
       style="fill:#ff0000;fill-opacity:1;fill-rule:nonzero;stroke:none"
       id="path1265"
       d="m 27.486838,157.49121 c 0.305451,2.24197 0.626185,4.50431 0.59198,6.77424 -0.04914,3.26082 -0.488709,6.62799 -0.783944,9.85722 -0.228229,2.49635 -0.434208,4.99467 -0.651312,7.49201 -0.97059,11.74098 -1.186917,23.5147 -1.372277,35.28708 -0.163903,10.40961 -0.279878,20.81288 -0.259786,31.22356 0.01854,1.8407 0.0356,3.68142 0.05561,5.52211 0.01461,1.34427 -0.01255,2.68978 0.04826,4.03276 0.100996,2.23051 0.589637,4.4022 0.58524,6.63913 -0.06484,0.72285 -0.06247,0.79387 -0.143275,1.41785 -0.01155,0.0892 -0.03531,0.35664 -0.03989,0.26683 -0.0056,-0.11048 0.02445,-0.21988 0.03668,-0.32982 -0.01368,-0.14631 -0.02735,-0.29262 -0.04103,-0.43894 -0.525995,-5.62697 -4.904793,6.75108 -5.593549,1.14171 v 0 c -0.08909,-0.72557 -0.05661,-1.4271 0.07288,-2.14666 0.0541,-1.19411 -0.189465,-2.36656 -0.314374,-3.55062 -0.440263,-4.17344 -0.302819,-8.35137 -0.375419,-12.54343 -0.01981,-10.44573 0.09521,-20.88412 0.260555,-31.32878 0.188476,-11.90595 0.40975,-23.81328 1.39296,-35.68734 0.218991,-2.51776 0.426335,-5.03655 0.656972,-7.55327 0.214894,-2.34492 0.708945,-6.48324 0.762211,-9.05343 0.04883,-2.35638 -0.369673,-4.68681 -0.597369,-7.02221 -0.548409,-5.62483 4.945952,-5.59977 5.708877,0 z"
       inkscape:connector-curvature="0" />
    <path
       style="fill:#ff0000;fill-opacity:1;fill-rule:evenodd;stroke:none;stroke-width:3.77952766"
       d="M -3.65625 79.445312 C -8.9491183 79.433473 -13.622301 84.725869 -12.585938 95.355469 C -11.725354 104.18218 -10.143571 112.98853 -10.328125 121.89453 C -10.529445 131.60864 -12.396787 147.25059 -13.208984 156.11328 C -14.080683 165.62529 -14.865677 175.14421 -15.693359 184.66016 C -19.409429 229.53849 -20.244681 274.5441 -20.957031 319.54297 C -21.581957 359.01885 -22.016279 398.47125 -21.941406 437.95117 C -21.667013 453.79518 -22.187424 469.58574 -20.523438 485.35938 C -20.05134 489.83456 -19.131465 494.26417 -19.335938 498.77734 C -19.825349 501.49694 -19.948046 504.14831 -19.611328 506.89062 C -17.008156 528.09139 -0.4567626 481.30888 1.53125 502.57617 C 1.5829539 503.12919 1.6338429 503.68139 1.6855469 504.23438 C 1.6393233 504.6499 1.5257096 505.06486 1.546875 505.48242 C 1.5641852 505.82186 1.6536121 504.80979 1.6972656 504.47266 C 2.0026703 502.11431 1.9932167 501.84727 2.2382812 499.11523 C 2.2548998 490.6607 0.40906092 482.45176 0.02734375 474.02148 C -0.20248932 468.94565 -0.099077977 463.86 -0.15429688 458.7793 C -0.22992522 451.82236 -0.29516193 444.86518 -0.36523438 437.9082 C -0.44117264 398.56075 -0.0022884055 359.24185 0.6171875 319.89844 C 1.3177607 275.4044 2.1343627 230.90465 5.8027344 186.5293 C 6.6232849 177.09053 7.4030272 167.64987 8.265625 158.21484 C 9.3814738 146.00988 11.04279 133.28334 11.228516 120.95898 C 11.357794 112.37972 10.144695 103.82906 8.9902344 95.355469 C 7.5484863 84.773226 1.6366183 79.457152 -3.65625 79.445312 z "
       transform="matrix(0.26458333,0,0,0.26458333,25.108139,132.26191)"
       id="path1267" />
  </g>
</svg>
